<?xml version="1.0" encoding="utf-8"?>
<!-- Generator: Adobe Illustrator 16.0.0, SVG Export Plug-In . SVG Version: 6.00 Build 0)  -->
<!DOCTYPE svg PUBLIC "-//W3C//DTD SVG 1.1//EN" "http://www.w3.org/Graphics/SVG/1.1/DTD/svg11.dtd">
<svg version="1.1" id="Layer_1" xmlns="http://www.w3.org/2000/svg" xmlns:xlink="http://www.w3.org/1999/xlink" x="0px" y="0px"
	 width="748px" height="306.14px" viewBox="0 0 748 306.14" enable-background="new 0 0 748 306.14" xml:space="preserve">
<g>
	<path fill="#231F20" d="M384.616,191.597c-2.267-3.8-4.8-7.883-7.6-12.25c-2.8-4.366-5.7-8.766-8.7-13.2
		c-3-4.433-6.05-8.732-9.15-12.9c-3.1-4.166-6.05-7.916-8.85-11.25v49.6h-12.4v-69.3h10.3c2.666,2.8,5.533,6.117,8.6,9.95
		c3.065,3.834,6.15,7.817,9.25,11.95c3.1,4.134,6.1,8.284,9,12.45c2.9,4.168,5.482,8.051,7.75,11.65v-46h12.5v69.3H384.616z"/>
	<path fill="#231F20" d="M456.115,165.396c0,4.135-0.601,7.9-1.801,11.301c-1.199,3.399-2.9,6.299-5.1,8.699
		c-2.2,2.4-4.85,4.268-7.95,5.601c-3.101,1.332-6.517,2-10.25,2c-3.734,0-7.134-0.668-10.2-2c-3.066-1.333-5.699-3.2-7.9-5.601
		c-2.199-2.4-3.916-5.3-5.149-8.699c-1.234-3.4-1.851-7.166-1.851-11.301c0-4.133,0.616-7.883,1.851-11.25
		c1.233-3.365,2.966-6.25,5.2-8.65c2.232-2.4,4.883-4.25,7.949-5.55c3.066-1.3,6.434-1.95,10.101-1.95
		c3.665,0,7.05,0.65,10.149,1.95c3.101,1.3,5.75,3.15,7.951,5.55c2.199,2.4,3.915,5.285,5.149,8.65
		C455.498,157.514,456.115,161.264,456.115,165.396z M443.715,165.396c0-5.199-1.117-9.315-3.35-12.35
		c-2.234-3.033-5.351-4.55-9.351-4.55s-7.117,1.517-9.351,4.55c-2.234,3.034-3.35,7.15-3.35,12.35c0,5.268,1.115,9.435,3.35,12.5
		c2.233,3.067,5.351,4.6,9.351,4.6s7.116-1.532,9.351-4.6C442.598,174.831,443.715,170.664,443.715,165.396z"/>
	<path fill="#231F20" d="M510.314,189.996c-2.4,0.735-5.418,1.4-9.051,2.001c-3.634,0.6-7.449,0.899-11.449,0.899
		c-4.135,0-7.835-0.634-11.101-1.899c-3.267-1.267-6.05-3.083-8.35-5.45c-2.3-2.365-4.067-5.232-5.3-8.6
		c-1.234-3.366-1.851-7.15-1.851-11.351c0-4.133,0.516-7.883,1.55-11.25c1.033-3.366,2.551-6.25,4.551-8.65s4.433-4.25,7.3-5.55
		c2.865-1.3,6.165-1.95,9.899-1.95c2.533,0,4.766,0.3,6.7,0.9c1.933,0.6,3.601,1.267,5,2v-25.1l12.101-2V189.996z M475.614,165.297
		c0,5.334,1.266,9.518,3.8,12.55c2.533,3.034,6.033,4.55,10.5,4.55c1.933,0,3.583-0.082,4.95-0.25c1.365-0.166,2.482-0.35,3.35-0.55
		v-30c-1.067-0.733-2.484-1.416-4.25-2.05c-1.767-0.633-3.649-0.95-5.649-0.95c-4.4,0-7.617,1.5-9.65,4.5
		C476.63,156.097,475.614,160.164,475.614,165.297z"/>
	<path fill="#231F20" d="M520.312,165.697c0-4.601,0.684-8.633,2.051-12.101c1.365-3.466,3.183-6.35,5.449-8.65
		c2.266-2.3,4.866-4.033,7.801-5.2c2.933-1.166,5.933-1.75,9-1.75c7.199,0,12.815,2.234,16.85,6.7
		c4.033,4.467,6.051,11.134,6.051,20c0,0.666-0.018,1.416-0.051,2.25c-0.034,0.834-0.084,1.584-0.15,2.25h-34.5
		c0.334,4.199,1.816,7.449,4.451,9.75c2.633,2.299,6.449,3.449,11.449,3.449c2.934,0,5.615-0.266,8.051-0.8
		c2.432-0.532,4.35-1.101,5.75-1.7l1.6,9.9c-0.668,0.334-1.584,0.685-2.75,1.05c-1.168,0.367-2.5,0.7-4,1s-3.117,0.55-4.85,0.75
		c-1.734,0.2-3.5,0.3-5.301,0.3c-4.6,0-8.6-0.685-12-2.05c-3.4-1.366-6.199-3.266-8.4-5.7c-2.199-2.433-3.834-5.3-4.899-8.6
		C520.846,173.246,520.312,169.631,520.312,165.697z M555.413,160.297c0-1.666-0.234-3.25-0.7-4.75c-0.467-1.5-1.15-2.8-2.05-3.9
		c-0.899-1.1-2-1.965-3.3-2.6c-1.301-0.633-2.85-0.95-4.65-0.95c-1.867,0-3.5,0.35-4.9,1.05c-1.399,0.7-2.584,1.617-3.549,2.75
		c-0.968,1.135-1.718,2.435-2.25,3.9c-0.535,1.467-0.9,2.967-1.101,4.5H555.413z"/>
	<path fill="#231F20" d="M607.613,150.197c-1-0.333-2.385-0.683-4.15-1.05c-1.767-0.365-3.816-0.55-6.149-0.55
		c-1.335,0-2.75,0.134-4.25,0.4c-1.5,0.267-2.55,0.5-3.15,0.7v41.9h-12.1v-49.8c2.333-0.866,5.25-1.683,8.75-2.45
		c3.5-0.766,7.383-1.15,11.649-1.15c0.801,0,1.733,0.05,2.801,0.15c1.065,0.1,2.133,0.234,3.199,0.4
		c1.066,0.167,2.101,0.367,3.101,0.6c1,0.234,1.8,0.45,2.399,0.65L607.613,150.197z"/>
	<path fill="#231F20" d="M629.113,123.997c0,2.267-0.734,4.067-2.2,5.4c-1.468,1.334-3.2,2-5.2,2c-2.066,0-3.834-0.666-5.3-2
		c-1.468-1.333-2.2-3.133-2.2-5.4c0-2.333,0.732-4.166,2.2-5.5c1.466-1.333,3.233-2,5.3-2c2,0,3.732,0.667,5.2,2
		C628.379,119.831,629.113,121.664,629.113,123.997z M627.812,191.597h-12.1v-52.3h12.1V191.597z"/>
	<path fill="#231F20" d="M677.312,147.797c-1.334,1.4-3.084,3.367-5.25,5.9c-2.167,2.534-4.484,5.35-6.951,8.45
		c-2.468,3.1-4.95,6.334-7.45,9.7c-2.5,3.367-4.75,6.585-6.75,9.649h27.002v10.101h-41.601v-7.5c1.466-2.665,3.3-5.565,5.5-8.7
		c2.2-3.133,4.466-6.283,6.8-9.449c2.333-3.166,4.65-6.184,6.95-9.051c2.3-2.865,4.351-5.365,6.15-7.5h-24.101v-10.1h39.7V147.797z"
		/>
	<path fill="#231F20" d="M682.012,165.697c0-4.601,0.683-8.633,2.05-12.101c1.366-3.466,3.183-6.35,5.45-8.65
		c2.266-2.3,4.865-4.033,7.8-5.2c2.933-1.166,5.933-1.75,9-1.75c7.2,0,12.815,2.234,16.851,6.7c4.032,4.467,6.049,11.134,6.049,20
		c0,0.666-0.017,1.416-0.049,2.25c-0.035,0.834-0.085,1.584-0.15,2.25h-34.5c0.332,4.199,1.815,7.449,4.449,9.75
		c2.633,2.299,6.451,3.449,11.451,3.449c2.932,0,5.615-0.266,8.049-0.8c2.434-0.532,4.351-1.101,5.75-1.7l1.601,9.9
		c-0.667,0.334-1.585,0.685-2.75,1.05c-1.167,0.367-2.5,0.7-4,1s-3.117,0.55-4.851,0.75c-1.734,0.2-3.5,0.3-5.299,0.3
		c-4.601,0-8.601-0.685-12-2.05c-3.4-1.366-6.201-3.266-8.4-5.7c-2.2-2.433-3.834-5.3-4.9-8.6
		C682.545,173.246,682.012,169.631,682.012,165.697z M717.111,160.297c0-1.666-0.234-3.25-0.699-4.75c-0.468-1.5-1.15-2.8-2.051-3.9
		c-0.9-1.1-2-1.965-3.3-2.6c-1.3-0.633-2.851-0.95-4.649-0.95c-1.867,0-3.5,0.35-4.9,1.05c-1.4,0.7-2.584,1.617-3.551,2.75
		c-0.967,1.135-1.717,2.435-2.25,3.9c-0.533,1.467-0.899,2.967-1.1,4.5H717.111z"/>
</g>
<g>
	<g>
		<g>
			<path fill="#FED766" d="M150.25,292.409c-8.648,0-16.812-1.957-22.971-5.516L45.74,239.827
				c-12.67-7.313-22.971-25.168-22.971-39.791V105.9c0-14.626,10.301-32.474,22.971-39.788l81.539-47.072
				c6.158-3.557,14.322-5.518,22.971-5.518c8.652,0,16.807,1.961,22.971,5.518l81.535,47.072
				c12.67,7.314,22.979,25.162,22.979,39.788v94.136c0,14.623-10.309,32.478-22.979,39.796l-81.535,47.062
				C167.056,290.452,158.902,292.409,150.25,292.409z M150.25,217.434l55.83-32.234v-64.468l-55.83-32.229l-55.836,32.229v64.468
				L150.25,217.434z"/>
		</g>
	</g>
	<g>
		<path fill="#231F20" d="M256.408,63.39l-81.576-47.068c-6.631-3.834-15.369-5.941-24.564-5.941
			c-9.188,0-17.921,2.107-24.552,5.941L43.876,63.39C30.117,71.34,19.029,90.016,19.029,105.9v94.136
			c0,15.893,11.082,34.562,24.842,42.511l81.686,47.068c6.631,3.825,15.43,5.938,24.617,5.938c9.195,0,17.952-2.112,24.583-5.938
			l81.632-47.068c13.766-7.944,24.641-26.615,24.641-42.511V105.9C281.029,90.006,270.173,71.338,256.408,63.39z M128.849,21.759
			c5.883-3.398,13.643-5.094,21.4-5.094c7.762,0,15.516,1.695,21.4,5.094l70.029,40.429l0.209,104.945l-32.859,19.253v-67.465
			l-0.076-0.101l0.098-35.164l-90.484-55.976L128.849,21.759z M203.029,122.549v60.839l-52.996,30.418l-53.004-30.418v-60.839
			l53.004-30.422L203.029,122.549z M58.029,243.447l-10.793-6.344c-11.77-6.794-21.207-23.47-21.207-37.067V116.18l90.285-50.222
			l33.299,19.233l-91.584,50.768V243.447z M274.029,200.036c0,13.598-9.35,30.273-21.119,37.072l-70.914,40.937l-90.967-52.116
			v-37.905v-0.999l59.086,34.035l0.16-0.055l30.064,19.89l93.689-53.746V200.036z"/>
	</g>
</g>
</svg>
