<svg version="1.1" xmlns="http://www.w3.org/2000/svg" xmlns:xlink="http://www.w3.org/1999/xlink" width="13" height="14" viewBox="0 0 13 14">
<path d="M10 10.5q0-0.203-0.148-0.352t-0.352-0.148-0.352 0.148-0.148 0.352 0.148 0.352 0.352 0.148 0.352-0.148 0.148-0.352zM12 10.5q0-0.203-0.148-0.352t-0.352-0.148-0.352 0.148-0.148 0.352 0.148 0.352 0.352 0.148 0.352-0.148 0.148-0.352zM13 8.75v2.5q0 0.312-0.219 0.531t-0.531 0.219h-11.5q-0.312 0-0.531-0.219t-0.219-0.531v-2.5q0-0.312 0.219-0.531t0.531-0.219h3.633l1.055 1.062q0.453 0.438 1.062 0.438t1.062-0.438l1.062-1.062h3.625q0.312 0 0.531 0.219t0.219 0.531zM10.461 4.305q0.133 0.32-0.109 0.547l-3.5 3.5q-0.141 0.148-0.352 0.148t-0.352-0.148l-3.5-3.5q-0.242-0.227-0.109-0.547 0.133-0.305 0.461-0.305h2v-3.5q0-0.203 0.148-0.352t0.352-0.148h2q0.203 0 0.352 0.148t0.148 0.352v3.5h2q0.328 0 0.461 0.305z"></path>
</svg>
