<svg xmlns="http://www.w3.org/2000/svg" width="748" height="306.14" viewBox="0 0 748 306.14"><path d="M384.616 191.597c-2.267-3.8-4.8-7.883-7.6-12.25-2.8-4.366-5.7-8.766-8.7-13.2-3-4.433-6.05-8.732-9.15-12.9-3.1-4.166-6.05-7.916-8.85-11.25v49.6h-12.4v-69.3h10.3c2.666 2.8 5.533 6.117 8.6 9.95a489.973 489.973 0 0 1 9.25 11.95c3.1 4.134 6.1 8.284 9 12.45 2.9 4.168 5.482 8.051 7.75 11.65v-46h12.5v69.3h-10.7zm71.499-26.201c0 4.135-.601 7.9-1.801 11.301-1.199 3.399-2.9 6.299-5.1 8.699-2.2 2.4-4.85 4.268-7.95 5.601-3.101 1.332-6.517 2-10.25 2-3.734 0-7.134-.668-10.2-2-3.066-1.333-5.699-3.2-7.9-5.601-2.199-2.4-3.916-5.3-5.149-8.699-1.234-3.4-1.851-7.166-1.851-11.301 0-4.133.616-7.883 1.851-11.25 1.233-3.365 2.966-6.25 5.2-8.65 2.232-2.4 4.883-4.25 7.949-5.55 3.066-1.3 6.434-1.95 10.101-1.95 3.665 0 7.05.65 10.149 1.95 3.101 1.3 5.75 3.15 7.951 5.55 2.199 2.4 3.915 5.285 5.149 8.65 1.234 3.368 1.851 7.118 1.851 11.25zm-12.4 0c0-5.199-1.117-9.315-3.35-12.35-2.234-3.033-5.351-4.55-9.351-4.55s-7.117 1.517-9.351 4.55c-2.234 3.034-3.35 7.15-3.35 12.35 0 5.268 1.115 9.435 3.35 12.5 2.233 3.067 5.351 4.6 9.351 4.6s7.116-1.532 9.351-4.6c2.233-3.065 3.35-7.232 3.35-12.5zm66.599 24.6c-2.4.735-5.418 1.4-9.051 2.001-3.634.6-7.449.899-11.449.899-4.135 0-7.835-.634-11.101-1.899-3.267-1.267-6.05-3.083-8.35-5.45-2.3-2.365-4.067-5.232-5.3-8.6-1.234-3.366-1.851-7.15-1.851-11.351 0-4.133.516-7.883 1.55-11.25 1.033-3.366 2.551-6.25 4.551-8.65s4.433-4.25 7.3-5.55c2.865-1.3 6.165-1.95 9.899-1.95 2.533 0 4.766.3 6.7.9 1.933.6 3.601 1.267 5 2v-25.1l12.101-2v76zm-34.7-24.699c0 5.334 1.266 9.518 3.8 12.55 2.533 3.034 6.033 4.55 10.5 4.55 1.933 0 3.583-.082 4.95-.25 1.365-.166 2.482-.35 3.35-.55v-30c-1.067-.733-2.484-1.416-4.25-2.05-1.767-.633-3.649-.95-5.649-.95-4.4 0-7.617 1.5-9.65 4.5-2.035 3-3.051 7.067-3.051 12.2zm44.698.4c0-4.601.684-8.633 2.051-12.101 1.365-3.466 3.183-6.35 5.449-8.65 2.266-2.3 4.866-4.033 7.801-5.2 2.933-1.166 5.933-1.75 9-1.75 7.199 0 12.815 2.234 16.85 6.7 4.033 4.467 6.051 11.134 6.051 20 0 .666-.018 1.416-.051 2.25a39.212 39.212 0 0 1-.15 2.25h-34.5c.334 4.199 1.816 7.449 4.451 9.75 2.633 2.299 6.449 3.449 11.449 3.449 2.934 0 5.615-.266 8.051-.8 2.432-.532 4.35-1.101 5.75-1.7l1.6 9.9c-.668.334-1.584.685-2.75 1.05-1.168.367-2.5.7-4 1s-3.117.55-4.85.75c-1.734.2-3.5.3-5.301.3-4.6 0-8.6-.685-12-2.05-3.4-1.366-6.199-3.266-8.4-5.7-2.199-2.433-3.834-5.3-4.899-8.6-1.068-3.299-1.602-6.914-1.602-10.848zm35.101-5.4c0-1.666-.234-3.25-.7-4.75-.467-1.5-1.15-2.8-2.05-3.9-.899-1.1-2-1.965-3.3-2.6-1.301-.633-2.85-.95-4.65-.95-1.867 0-3.5.35-4.9 1.05-1.399.7-2.584 1.617-3.549 2.75a12.555 12.555 0 0 0-2.25 3.9 21.098 21.098 0 0 0-1.101 4.5h22.5zm52.2-10.1c-1-.333-2.385-.683-4.15-1.05-1.767-.365-3.816-.55-6.149-.55-1.335 0-2.75.134-4.25.4-1.5.267-2.55.5-3.15.7v41.9h-12.1v-49.8c2.333-.866 5.25-1.683 8.75-2.45 3.5-.766 7.383-1.15 11.649-1.15.801 0 1.733.05 2.801.15 1.065.1 2.133.234 3.199.4 1.066.167 2.101.367 3.101.6 1 .234 1.8.45 2.399.65l-2.1 10.2zm21.5-26.2c0 2.267-.734 4.067-2.2 5.4-1.468 1.334-3.2 2-5.2 2-2.066 0-3.834-.666-5.3-2-1.468-1.333-2.2-3.133-2.2-5.4 0-2.333.732-4.166 2.2-5.5 1.466-1.333 3.233-2 5.3-2 2 0 3.732.667 5.2 2 1.466 1.334 2.2 3.167 2.2 5.5zm-1.301 67.6h-12.1v-52.3h12.1v52.3zm49.5-43.8c-1.334 1.4-3.084 3.367-5.25 5.9a311.495 311.495 0 0 0-6.951 8.45c-2.468 3.1-4.95 6.334-7.45 9.7-2.5 3.367-4.75 6.585-6.75 9.649h27.002v10.101h-41.601v-7.5c1.466-2.665 3.3-5.565 5.5-8.7 2.2-3.133 4.466-6.283 6.8-9.449a278.334 278.334 0 0 1 6.95-9.051c2.3-2.865 4.351-5.365 6.15-7.5h-24.101v-10.1h39.7v8.5zm4.7 17.9c0-4.601.683-8.633 2.05-12.101 1.366-3.466 3.183-6.35 5.45-8.65 2.266-2.3 4.865-4.033 7.8-5.2 2.933-1.166 5.933-1.75 9-1.75 7.2 0 12.815 2.234 16.851 6.7 4.032 4.467 6.049 11.134 6.049 20 0 .666-.017 1.416-.049 2.25a41.115 41.115 0 0 1-.15 2.25h-34.5c.332 4.199 1.815 7.449 4.449 9.75 2.633 2.299 6.451 3.449 11.451 3.449 2.932 0 5.615-.266 8.049-.8 2.434-.532 4.351-1.101 5.75-1.7l1.601 9.9c-.667.334-1.585.685-2.75 1.05-1.167.367-2.5.7-4 1s-3.117.55-4.851.75c-1.734.2-3.5.3-5.299.3-4.601 0-8.601-.685-12-2.05-3.4-1.366-6.201-3.266-8.4-5.7-2.2-2.433-3.834-5.3-4.9-8.6-1.068-3.299-1.601-6.914-1.601-10.848zm35.099-5.4c0-1.666-.234-3.25-.699-4.75-.468-1.5-1.15-2.8-2.051-3.9-.9-1.1-2-1.965-3.3-2.6-1.3-.633-2.851-.95-4.649-.95-1.867 0-3.5.35-4.9 1.05-1.4.7-2.584 1.617-3.551 2.75a12.594 12.594 0 0 0-2.25 3.9 21.216 21.216 0 0 0-1.1 4.5h22.5z" fill="#231F20"/><path fill="#FED766" d="M150.25 292.409c-8.648 0-16.812-1.957-22.971-5.516L45.74 239.827c-12.67-7.313-22.971-25.168-22.971-39.791V105.9c0-14.626 10.301-32.474 22.971-39.788l81.539-47.072c6.158-3.557 14.322-5.518 22.971-5.518 8.652 0 16.807 1.961 22.971 5.518l81.535 47.072c12.67 7.314 22.979 25.162 22.979 39.788v94.136c0 14.623-10.309 32.478-22.979 39.796l-81.535 47.062c-6.165 3.558-14.319 5.515-22.971 5.515zm0-74.975l55.83-32.234v-64.468l-55.83-32.229-55.836 32.229V185.2l55.836 32.234z"/><path fill="#231F20" d="M256.408 63.39l-81.576-47.068c-6.631-3.834-15.369-5.941-24.564-5.941-9.188 0-17.921 2.107-24.552 5.941L43.876 63.39c-13.759 7.95-24.847 26.626-24.847 42.51v94.136c0 15.893 11.082 34.562 24.842 42.511l81.686 47.068c6.631 3.825 15.43 5.938 24.617 5.938 9.195 0 17.952-2.112 24.583-5.938l81.632-47.068c13.766-7.944 24.641-26.615 24.641-42.511V105.9c-.001-15.894-10.857-34.562-24.622-42.51zM128.849 21.759c5.883-3.398 13.643-5.094 21.4-5.094 7.762 0 15.516 1.695 21.4 5.094l70.029 40.429.209 104.945-32.859 19.253v-67.465l-.076-.101.098-35.164-90.484-55.976 10.283-5.921zm74.18 100.79v60.839l-52.996 30.418-53.004-30.418v-60.839l53.004-30.422 52.996 30.422zm-145 120.898l-10.793-6.344c-11.77-6.794-21.207-23.47-21.207-37.067V116.18l90.285-50.222 33.299 19.233-91.584 50.768v107.488zm216-43.411c0 13.598-9.35 30.273-21.119 37.072l-70.914 40.937-90.967-52.116v-38.904l59.086 34.035.16-.055 30.064 19.89 93.689-53.746v12.887z"/></svg>