<?xml version="1.0" encoding="UTF-8" standalone="no"?>
<svg
   xmlns:dc="http://purl.org/dc/elements/1.1/"
   xmlns:cc="http://creativecommons.org/ns#"
   xmlns:rdf="http://www.w3.org/1999/02/22-rdf-syntax-ns#"
   xmlns:svg="http://www.w3.org/2000/svg"
   xmlns="http://www.w3.org/2000/svg"
   width="512"
   height="512"
   viewBox="0 0 256 256"
   version="1.1"
   id="svg8">
  <defs
     id="defs2" />
  <metadata
     id="metadata5">
    <rdf:RDF>
      <cc:Work
         rdf:about="">
        <dc:format>image/svg+xml</dc:format>
        <dc:type
           rdf:resource="http://purl.org/dc/dcmitype/StillImage" />
        <dc:title></dc:title>
      </cc:Work>
    </rdf:RDF>
  </metadata>
  <g
     id="layer1"
     transform="translate(0,-161.53333)">
    <path
       id="path3701"
       d="m 214.68038,339.57827 c -5.00449,8.66804 -76.67139,50.04494 -86.68038,50.04494 -10.00899,0 -81.675887,-41.3769 -86.680381,-50.04494 -5.004494,-8.66804 -5.004493,-91.42184 10e-7,-100.08988 5.004494,-8.66804 76.67139,-50.04494 86.68038,-50.04494 10.00899,0 81.67589,41.3769 86.68038,50.04494 5.00449,8.66804 5.00449,91.42184 0,100.08988 z"
       style="fill:#d3d3d3;fill-opacity:1;stroke:#343a40;stroke-width:2;stroke-miterlimit:4;stroke-dasharray:none;stroke-opacity:1" />
    <g
       aria-label="N"
       transform="matrix(0.74898602,0,0,0.74898602,-25.644535,61.397217)"
       style="font-style:normal;font-variant:normal;font-weight:normal;font-stretch:normal;font-size:40px;line-height:1.25;font-family:arial;-inkscape-font-specification:arial;letter-spacing:0px;word-spacing:0px;fill:#2c2c2c;fill-opacity:1;stroke:none"
       id="flowRoot4516">
      <path
         d="m 150.99609,373.31204 v -137.4375 h 18.65625 l 72.1875,107.90625 V 235.87454 h 17.4375 v 137.4375 h -18.65625 l -72.1875,-108 v 108 z"
         style="font-style:normal;font-variant:normal;font-weight:normal;font-stretch:normal;font-size:192px;font-family:arial;-inkscape-font-specification:arial;fill:#2c2c2c;fill-opacity:1"
         id="path4737" />
    </g>
  </g>
</svg>
