<svg xmlns="http://www.w3.org/2000/svg" width="13" height="14" viewBox="0 0 13 14"><path d="M3 11.5q0-.203-.148-.352T2.5 11t-.352.148T2 11.5t.148.352T2.5 12t.352-.148T3 11.5zm5.031-3.281l-5.328 5.328q-.289.289-.703.289-.406 0-.711-.289l-.828-.844Q.164 12.422.164 12q0-.414.297-.711l5.32-5.32q.305.766.895 1.355t1.355.895zm4.953-3.399q0 .305-.18.828-.367 1.047-1.285 1.699t-2.02.652q-1.445 0-2.473-1.027T5.999 4.499t1.027-2.473T9.499.999q.453 0 .949.129t.84.363q.125.086.125.219t-.125.219l-2.289 1.32v1.75l1.508.836.617-.379q.578-.356 1.059-.633t.551-.277q.117 0 .184.078t.066.195z"/></svg>